<?xml version="1.0" encoding="UTF-8"?>
<svg id="Layer_1_copy_8" xmlns="http://www.w3.org/2000/svg" version="1.1" viewBox="74.3 4.37 259.63 259.63">
  <defs>
    <style>
      .st0 {
        fill: #fff;
      }

      .st1 {
        fill: #ffbc00;
      }
    </style>
  </defs>
  <g>
    <path class="st1" d="M333.927,134.182c0,63.204-45.161,115.845-104.971,127.423-8.039,1.574-16.345,2.389-24.842,2.389-15.039,0-29.486-2.557-42.917-7.268-21.191-7.413-39.858-20.164-54.395-36.643-7.291-8.228-13.532-17.383-18.545-27.275-8.932-17.607-13.956-37.536-13.956-58.626C74.302,62.494,132.426,4.37,204.115,4.37s129.813,58.124,129.813,129.813Z"/>
    <path d="M273.403,140.58c-10.897,23.167-28.269,44.023-67.435,60.937-6.487,6.252-9.49,15.776-8.798,21.559.692,5.795,3.707,26.65,3.707,26.65,0,0,23.971,5.571,28.079,11.879-8.039,1.574-16.345,2.389-24.842,2.389-15.039,0-29.486-2.557-42.917-7.268,4.254-3.372,14.938-5.594,27.175-6.766-.234-3.707-1.63-9.501-1.63-9.501,0,0-15.285-13.677-9.724-17.607,5.56-3.941,9.256-9.981,9.256-14.615-12.371,1.351-45.228,7.547-79.471,11.846-6.788.849-13.643,1.63-20.398,2.289-41.7,12.047-76.233,23.636-82.373,22.944,31.596-19.65,59.731-37.167,84.227-52.508,59.586-37.335,97.602-61.786,111.223-72.627,19.237-15.284,14.603-34.979-.692-45.184-19.695-2.78-27.577-3.003-38.463,3.941,5.56-12.516,12.739-21.313,36.609-23.401,18.076-12.281,39.155-18.076,61.172,3.014,22.017,21.079,26.181,58.849,15.296,82.027Z"/>
    <ellipse class="st0" cx="225.52" cy="57.07" rx="2.932" ry="1.375"/>
  </g>
</svg>